<mxfile host="65bd71144e">
    <diagram id="R3N_D--5qBi451Lv7yX1" name="Page-1">
        <mxGraphModel dx="428" dy="322" grid="1" gridSize="10" guides="1" tooltips="1" connect="1" arrows="1" fold="1" page="1" pageScale="1" pageWidth="850" pageHeight="1100" math="0" shadow="0">
            <root>
                <mxCell id="0"/>
                <mxCell id="1" parent="0"/>
                <mxCell id="2" value="Entity relationship diagram" style="swimlane;whiteSpace=wrap;html=1;startSize=20;" parent="1" vertex="1">
                    <mxGeometry x="10" y="70" width="330" height="340" as="geometry"/>
                </mxCell>
                <mxCell id="5" style="edgeStyle=none;html=1;entryX=0.5;entryY=1;entryDx=0;entryDy=0;endArrow=none;endFill=0;" parent="2" source="3" target="4" edge="1">
                    <mxGeometry relative="1" as="geometry"/>
                </mxCell>
                <mxCell id="7" style="edgeStyle=none;html=1;entryX=0.5;entryY=1;entryDx=0;entryDy=0;endArrow=none;endFill=0;" parent="2" source="3" target="6" edge="1">
                    <mxGeometry relative="1" as="geometry"/>
                </mxCell>
                <mxCell id="112" style="edgeStyle=none;html=1;entryX=0.5;entryY=0;entryDx=0;entryDy=0;endArrow=none;endFill=0;" parent="2" source="3" edge="1">
                    <mxGeometry relative="1" as="geometry">
                        <mxPoint x="210" y="160" as="targetPoint"/>
                    </mxGeometry>
                </mxCell>
                <mxCell id="3" value="employee" style="html=1;dashed=0;whiteSpace=wrap;" parent="2" vertex="1">
                    <mxGeometry x="160" y="90" width="100" height="50" as="geometry"/>
                </mxCell>
                <mxCell id="4" value="&lt;u&gt;SSN&lt;/u&gt;" style="ellipse;whiteSpace=wrap;html=1;align=center;" parent="2" vertex="1">
                    <mxGeometry x="90" y="30" width="100" height="40" as="geometry"/>
                </mxCell>
                <mxCell id="6" value="name" style="ellipse;whiteSpace=wrap;html=1;align=center;" parent="2" vertex="1">
                    <mxGeometry x="210" y="30" width="100" height="40" as="geometry"/>
                </mxCell>
                <mxCell id="18" style="edgeStyle=none;html=1;entryX=0.5;entryY=0;entryDx=0;entryDy=0;" parent="2" edge="1">
                    <mxGeometry relative="1" as="geometry">
                        <mxPoint x="81.43046618229482" y="268.5695338177052" as="sourcePoint"/>
                    </mxGeometry>
                </mxCell>
                <mxCell id="19" style="edgeStyle=none;html=1;entryX=0.5;entryY=0;entryDx=0;entryDy=0;" parent="2" edge="1">
                    <mxGeometry relative="1" as="geometry">
                        <mxPoint x="128.67311721816714" y="266.38463841038117" as="sourcePoint"/>
                    </mxGeometry>
                </mxCell>
                <mxCell id="114" style="edgeStyle=none;html=1;entryX=0.5;entryY=0;entryDx=0;entryDy=0;endArrow=none;endFill=0;exitX=0.5;exitY=1;exitDx=0;exitDy=0;" parent="2" source="129" edge="1">
                    <mxGeometry relative="1" as="geometry">
                        <mxPoint x="210" y="240" as="targetPoint"/>
                        <mxPoint x="210" y="220" as="sourcePoint"/>
                    </mxGeometry>
                </mxCell>
                <mxCell id="116" style="edgeStyle=none;html=1;entryX=1;entryY=0.5;entryDx=0;entryDy=0;endArrow=none;endFill=0;" parent="2" target="115" edge="1">
                    <mxGeometry relative="1" as="geometry">
                        <mxPoint x="160" y="260" as="sourcePoint"/>
                    </mxGeometry>
                </mxCell>
                <mxCell id="118" style="edgeStyle=none;html=1;entryX=0.5;entryY=0;entryDx=0;entryDy=0;endArrow=none;endFill=0;" parent="2" target="117" edge="1">
                    <mxGeometry relative="1" as="geometry">
                        <mxPoint x="160" y="278.75" as="sourcePoint"/>
                    </mxGeometry>
                </mxCell>
                <mxCell id="115" value="&lt;u&gt;number&lt;/u&gt;" style="ellipse;whiteSpace=wrap;html=1;align=center;" parent="2" vertex="1">
                    <mxGeometry x="20" y="240" width="100" height="40" as="geometry"/>
                </mxCell>
                <mxCell id="117" value="color" style="ellipse;whiteSpace=wrap;html=1;align=center;" parent="2" vertex="1">
                    <mxGeometry x="80" y="290" width="100" height="40" as="geometry"/>
                </mxCell>
                <mxCell id="124" value="1" style="text;html=1;align=center;verticalAlign=middle;resizable=0;points=[];autosize=1;strokeColor=none;fillColor=none;" parent="2" vertex="1">
                    <mxGeometry x="200" y="217" width="30" height="30" as="geometry"/>
                </mxCell>
                <mxCell id="126" value="car" style="html=1;dashed=0;whiteSpace=wrap;" parent="2" vertex="1">
                    <mxGeometry x="160" y="240" width="100" height="50" as="geometry"/>
                </mxCell>
                <mxCell id="125" value="1" style="text;html=1;align=center;verticalAlign=middle;resizable=0;points=[];autosize=1;strokeColor=none;fillColor=none;" parent="2" vertex="1">
                    <mxGeometry x="206" y="134" width="30" height="30" as="geometry"/>
                </mxCell>
                <mxCell id="129" value="has" style="shape=rhombus;perimeter=rhombusPerimeter;whiteSpace=wrap;html=1;align=center;" parent="2" vertex="1">
                    <mxGeometry x="150" y="157" width="120" height="60" as="geometry"/>
                </mxCell>
                <mxCell id="22" value="DB Mapping" style="swimlane;whiteSpace=wrap;html=1;startSize=20;" parent="1" vertex="1">
                    <mxGeometry x="352" y="70" width="468" height="320" as="geometry"/>
                </mxCell>
                <mxCell id="28" style="edgeStyle=none;html=1;entryX=1;entryY=0.5;entryDx=0;entryDy=0;" parent="22" edge="1">
                    <mxGeometry relative="1" as="geometry">
                        <mxPoint x="100" y="200" as="targetPoint"/>
                    </mxGeometry>
                </mxCell>
                <mxCell id="34" style="edgeStyle=none;html=1;entryX=0.5;entryY=0;entryDx=0;entryDy=0;" parent="22" edge="1">
                    <mxGeometry relative="1" as="geometry">
                        <mxPoint x="60" y="290" as="targetPoint"/>
                    </mxGeometry>
                </mxCell>
                <mxCell id="35" style="edgeStyle=none;html=1;entryX=0.5;entryY=0;entryDx=0;entryDy=0;" parent="22" edge="1">
                    <mxGeometry relative="1" as="geometry">
                        <mxPoint x="170" y="290" as="targetPoint"/>
                    </mxGeometry>
                </mxCell>
                <mxCell id="38" style="edgeStyle=none;html=1;entryX=0.764;entryY=0.12;entryDx=0;entryDy=0;entryPerimeter=0;" parent="22" edge="1">
                    <mxGeometry relative="1" as="geometry">
                        <mxPoint x="126.40000000000009" y="234.79999999999995" as="targetPoint"/>
                    </mxGeometry>
                </mxCell>
                <mxCell id="53" value="Mapping" style="swimlane;whiteSpace=wrap;html=1;" parent="22" vertex="1">
                    <mxGeometry x="10" y="30" width="450" height="210" as="geometry"/>
                </mxCell>
                <mxCell id="88" value="employee table" style="swimlane;whiteSpace=wrap;html=1;" parent="53" vertex="1">
                    <mxGeometry x="20" y="40" width="200" height="60" as="geometry"/>
                </mxCell>
                <mxCell id="89" value="SSN" style="rounded=0;whiteSpace=wrap;html=1;fillColor=#6a00ff;fontColor=#ffffff;strokeColor=#3700CC;fontStyle=4" parent="88" vertex="1">
                    <mxGeometry y="25" width="100" height="30" as="geometry"/>
                </mxCell>
                <mxCell id="127" value="name" style="rounded=0;whiteSpace=wrap;html=1;fillColor=#6a00ff;fontColor=#ffffff;strokeColor=#3700CC;" parent="88" vertex="1">
                    <mxGeometry x="100" y="25" width="100" height="30" as="geometry"/>
                </mxCell>
                <mxCell id="130" value="car table" style="swimlane;whiteSpace=wrap;html=1;" parent="53" vertex="1">
                    <mxGeometry x="20" y="120" width="200" height="60" as="geometry"/>
                </mxCell>
                <mxCell id="131" value="car-number" style="rounded=0;whiteSpace=wrap;html=1;fillColor=#6a00ff;fontColor=#ffffff;strokeColor=#3700CC;fontStyle=4" parent="130" vertex="1">
                    <mxGeometry y="25" width="100" height="30" as="geometry"/>
                </mxCell>
                <mxCell id="134" value="color" style="rounded=0;whiteSpace=wrap;html=1;fillColor=#6a00ff;fontColor=#ffffff;strokeColor=#3700CC;" parent="130" vertex="1">
                    <mxGeometry x="100" y="25" width="100" height="30" as="geometry"/>
                </mxCell>
                <mxCell id="138" value="employee-own-car table" style="swimlane;whiteSpace=wrap;html=1;" parent="53" vertex="1">
                    <mxGeometry x="240" y="90" width="200" height="60" as="geometry"/>
                </mxCell>
                <mxCell id="145" style="edgeStyle=orthogonalEdgeStyle;html=1;" parent="138" source="139" edge="1">
                    <mxGeometry relative="1" as="geometry">
                        <mxPoint x="-172" y="10" as="targetPoint"/>
                        <Array as="points">
                            <mxPoint x="50" y="70"/>
                            <mxPoint x="-12" y="70"/>
                            <mxPoint x="-12" y="20"/>
                            <mxPoint x="-172" y="20"/>
                        </Array>
                    </mxGeometry>
                </mxCell>
                <mxCell id="139" value="SSN" style="rounded=0;whiteSpace=wrap;html=1;fillColor=#6a00ff;fontColor=#ffffff;strokeColor=#3700CC;fontStyle=4" parent="138" vertex="1">
                    <mxGeometry y="25" width="100" height="30" as="geometry"/>
                </mxCell>
                <mxCell id="141" value="car-number" style="rounded=0;whiteSpace=wrap;html=1;fillColor=#6a00ff;fontColor=#ffffff;strokeColor=#3700CC;fontStyle=0" parent="138" vertex="1">
                    <mxGeometry x="100" y="25" width="100" height="30" as="geometry"/>
                </mxCell>
                <mxCell id="146" style="edgeStyle=none;html=1;exitX=1;exitY=0.75;exitDx=0;exitDy=0;entryX=0;entryY=0.75;entryDx=0;entryDy=0;endArrow=none;endFill=0;dashed=1;" edge="1" parent="138" source="139" target="139">
                    <mxGeometry relative="1" as="geometry"/>
                </mxCell>
                <mxCell id="147" style="edgeStyle=none;html=1;exitX=1;exitY=0.75;exitDx=0;exitDy=0;entryX=0;entryY=0.75;entryDx=0;entryDy=0;endArrow=none;endFill=0;dashed=1;" edge="1" parent="138" source="141" target="141">
                    <mxGeometry relative="1" as="geometry"/>
                </mxCell>
                <mxCell id="142" style="edgeStyle=orthogonalEdgeStyle;html=1;exitX=0.5;exitY=1;exitDx=0;exitDy=0;entryX=0.5;entryY=1;entryDx=0;entryDy=0;" parent="53" source="141" target="131" edge="1">
                    <mxGeometry relative="1" as="geometry">
                        <Array as="points">
                            <mxPoint x="390" y="200"/>
                            <mxPoint x="70" y="200"/>
                        </Array>
                    </mxGeometry>
                </mxCell>
                <mxCell id="54" value="constraints file" style="swimlane;fontStyle=0;childLayout=stackLayout;horizontal=1;startSize=30;horizontalStack=0;resizeParent=1;resizeParentMax=0;resizeLast=0;collapsible=1;marginBottom=0;whiteSpace=wrap;html=1;" parent="22" vertex="1">
                    <mxGeometry x="10" y="250" width="440" height="60" as="geometry"/>
                </mxCell>
            </root>
        </mxGraphModel>
    </diagram>
</mxfile>